<svg id="svg" version="1.1" xmlns="http://www.w3.org/2000/svg" xmlns:xlink="http://www.w3.org/1999/xlink" width="400" height="337.5280898876405" viewBox="0, 0, 400,337.5280898876405"><g id="svgg"><path id="path0" d="M84.388 115.116 C 84.388 148.574,84.476 157.352,84.810 157.473 C 85.042 157.556,95.979 157.665,109.114 157.715 L 132.996 157.806 132.996 117.667 L 132.996 77.528 132.143 76.072 C 131.643 75.219,130.688 74.264,129.835 73.764 L 128.380 72.911 106.384 72.911 L 84.388 72.911 84.388 115.116 M159.789 73.447 C 158.340 74.162,157.168 75.510,156.506 77.222 C 156.000 78.532,155.949 82.281,155.949 118.365 L 155.949 158.066 157.515 157.852 C 158.377 157.734,169.389 157.637,181.988 157.637 L 204.895 157.637 204.895 115.274 L 204.895 72.911 182.869 72.919 C 163.721 72.926,160.706 72.995,159.789 73.447 M281.519 139.512 C 281.519 203.836,281.509 204.832,280.827 208.633 C 277.921 224.824,266.144 237.002,250.199 240.306 C 246.816 241.007,246.337 241.013,188.121 241.018 L 129.451 241.024 127.909 242.453 C 125.200 244.962,119.760 249.937,119.042 250.561 C 117.981 251.484,118.641 256.944,120.202 260.163 C 122.193 264.266,126.586 267.752,130.903 268.655 C 132.172 268.921,149.419 269.030,190.260 269.030 C 241.709 269.030,248.023 269.086,249.662 269.562 C 251.166 270.000,259.910 275.058,265.992 279.008 C 266.641 279.430,273.970 283.955,282.278 289.063 L 297.384 298.350 297.384 288.409 C 297.384 276.138,297.758 274.732,301.874 271.525 C 305.157 268.967,304.421 269.031,330.939 269.021 C 345.243 269.016,355.200 268.881,356.118 268.679 C 361.882 267.414,366.824 262.276,368.096 256.227 C 368.871 252.543,368.871 90.749,368.096 87.064 C 366.938 81.560,363.526 77.521,358.070 75.195 L 356.287 74.435 318.903 74.341 L 281.519 74.247 281.519 139.512 " stroke="none" fill="#f6c88b" fill-rule="evenodd"></path><path id="path1" d="M42.025 0.227 C 39.040 0.385,34.430 1.047,34.430 1.318 C 34.430 1.447,33.519 1.741,32.405 1.971 C 31.291 2.201,30.380 2.504,30.380 2.644 C 30.380 2.784,29.696 3.081,28.861 3.304 C 28.025 3.528,27.342 3.851,27.342 4.023 C 27.342 4.194,26.876 4.437,26.306 4.562 C 25.737 4.687,25.194 4.989,25.100 5.233 C 25.007 5.478,24.599 5.761,24.195 5.863 C 23.456 6.049,22.403 6.753,21.226 7.848 C 20.876 8.173,20.492 8.439,20.371 8.439 C 19.994 8.439,14.177 14.414,14.177 14.801 C 14.177 15.002,13.873 15.329,13.502 15.527 C 13.131 15.726,12.827 16.116,12.827 16.394 C 12.827 16.672,12.625 16.976,12.378 17.071 C 12.131 17.166,11.723 17.769,11.471 18.411 C 11.219 19.053,10.914 19.578,10.793 19.578 C 10.671 19.578,10.372 20.186,10.127 20.928 C 9.881 21.671,9.578 22.278,9.451 22.278 C 9.325 22.278,9.014 22.924,8.760 23.713 C 8.506 24.502,8.192 25.224,8.061 25.318 C 7.931 25.411,7.626 26.474,7.383 27.680 C 7.141 28.887,6.832 29.953,6.698 30.049 C 5.236 31.105,5.236 210.245,6.698 211.301 C 6.832 211.398,7.137 212.447,7.376 213.634 C 7.614 214.820,8.009 215.990,8.252 216.233 C 8.496 216.477,8.796 217.215,8.920 217.874 C 9.043 218.533,9.265 219.072,9.413 219.072 C 9.560 219.072,9.881 219.679,10.127 220.422 C 10.372 221.165,10.671 221.772,10.793 221.772 C 10.914 221.772,11.222 222.304,11.477 222.954 C 11.732 223.603,12.069 224.135,12.225 224.135 C 12.382 224.135,12.608 224.401,12.727 224.726 C 12.970 225.387,13.063 225.494,16.988 229.620 C 18.533 231.245,19.971 232.574,20.182 232.574 C 20.394 232.574,20.730 232.878,20.928 233.249 C 21.127 233.620,21.505 233.924,21.767 233.924 C 22.030 233.924,22.366 234.114,22.515 234.347 C 22.663 234.579,23.241 234.996,23.797 235.274 C 24.354 235.552,24.925 235.958,25.065 236.176 C 25.206 236.393,25.775 236.672,26.331 236.794 C 26.887 236.916,27.342 237.153,27.342 237.322 C 27.342 237.490,28.025 237.800,28.861 238.010 C 29.696 238.220,30.380 238.502,30.380 238.636 C 30.380 238.770,31.253 239.074,32.321 239.312 C 33.388 239.549,34.338 239.864,34.432 240.011 C 34.768 240.538,39.977 241.013,45.425 241.013 L 50.970 241.013 50.970 265.009 L 50.970 289.005 51.952 291.085 C 53.012 293.331,54.954 295.562,56.553 296.371 C 57.103 296.649,57.661 297.029,57.794 297.215 C 58.114 297.664,67.118 297.664,67.438 297.215 C 67.571 297.029,68.133 296.649,68.688 296.371 C 69.244 296.093,70.112 295.447,70.618 294.937 C 71.124 294.426,71.657 294.005,71.803 294.001 C 71.948 293.997,73.053 293.009,74.258 291.807 C 75.463 290.604,76.554 289.620,76.681 289.620 C 76.809 289.620,77.906 288.633,79.119 287.426 C 80.331 286.219,81.405 285.232,81.505 285.232 C 81.605 285.232,82.637 284.342,83.797 283.253 C 88.829 278.535,90.714 276.797,91.953 275.733 C 92.679 275.109,93.999 273.916,94.885 273.080 C 95.771 272.245,96.702 271.409,96.954 271.224 C 97.206 271.038,97.744 270.600,98.150 270.250 C 98.888 269.614,98.888 269.614,99.585 271.094 C 100.574 273.194,101.332 274.572,101.605 274.768 C 101.734 274.861,102.026 275.290,102.253 275.722 C 102.766 276.694,102.962 276.919,106.595 280.694 C 108.212 282.375,109.802 283.851,110.127 283.974 C 110.451 284.097,110.717 284.345,110.717 284.524 C 110.717 284.703,111.020 284.945,111.390 285.063 C 111.761 285.180,112.281 285.493,112.546 285.759 C 113.268 286.481,119.511 289.620,120.224 289.620 C 120.565 289.620,120.844 289.751,120.844 289.912 C 120.844 290.072,121.793 290.399,122.954 290.637 C 124.114 290.876,125.240 291.209,125.457 291.376 C 126.492 292.178,135.148 292.309,187.458 292.315 C 241.250 292.320,243.132 292.342,243.999 292.951 C 244.491 293.298,245.236 293.688,245.654 293.818 C 246.072 293.948,246.414 294.177,246.414 294.328 C 246.414 294.478,246.869 294.790,247.426 295.021 C 247.983 295.252,248.439 295.559,248.439 295.704 C 248.439 295.849,248.895 296.127,249.451 296.321 C 250.008 296.515,250.464 296.821,250.464 297.002 C 250.464 297.183,250.930 297.433,251.500 297.558 C 252.069 297.683,252.607 297.973,252.695 298.202 C 252.783 298.432,253.380 298.825,254.022 299.077 C 254.665 299.329,255.190 299.640,255.190 299.769 C 255.190 299.897,255.646 300.191,256.203 300.422 C 256.759 300.653,257.215 300.947,257.215 301.075 C 257.215 301.203,257.741 301.515,258.383 301.767 C 259.025 302.019,259.622 302.412,259.710 302.642 C 259.798 302.871,260.336 303.161,260.905 303.286 C 261.475 303.411,261.941 303.661,261.941 303.842 C 261.941 304.022,262.397 304.329,262.954 304.523 C 263.511 304.717,263.966 304.995,263.966 305.140 C 263.966 305.285,264.422 305.592,264.979 305.823 C 265.536 306.053,265.992 306.361,265.992 306.506 C 265.992 306.651,266.447 306.928,267.004 307.122 C 267.561 307.317,268.017 307.623,268.017 307.804 C 268.017 307.984,268.483 308.234,269.052 308.359 C 269.622 308.485,270.160 308.775,270.248 309.004 C 270.336 309.233,270.933 309.627,271.575 309.879 C 272.217 310.131,272.743 310.442,272.743 310.571 C 272.743 310.699,273.198 310.993,273.755 311.224 C 274.312 311.454,274.768 311.758,274.768 311.899 C 274.768 312.039,275.262 312.354,275.865 312.597 C 276.468 312.841,277.077 313.227,277.217 313.456 C 277.358 313.684,277.927 313.971,278.483 314.093 C 279.039 314.215,279.494 314.459,279.494 314.634 C 279.494 314.810,279.873 315.098,280.338 315.274 C 280.802 315.451,281.181 315.734,281.181 315.904 C 281.181 316.075,281.533 316.302,281.963 316.410 C 282.393 316.518,283.100 316.914,283.534 317.290 C 283.968 317.667,284.520 317.975,284.761 317.975 C 285.001 317.975,285.320 318.165,285.468 318.397 C 285.617 318.630,286.194 319.047,286.751 319.325 C 287.308 319.603,287.840 319.907,287.932 320.001 C 288.323 320.395,291.717 322.363,292.006 322.363 C 292.179 322.363,292.321 322.505,292.321 322.679 C 292.321 322.852,292.852 323.187,293.502 323.421 C 294.152 323.656,294.684 323.978,294.684 324.136 C 294.684 324.294,295.139 324.582,295.696 324.776 C 296.253 324.970,296.709 325.248,296.709 325.393 C 296.709 325.538,297.165 325.845,297.722 326.076 C 298.278 326.307,298.734 326.614,298.734 326.759 C 298.734 326.904,299.152 327.198,299.662 327.412 C 301.035 327.989,302.866 329.040,303.093 329.381 C 303.951 330.673,314.262 330.799,314.262 329.518 C 314.262 329.386,314.748 329.063,315.343 328.800 C 316.959 328.085,319.186 325.576,319.560 324.051 C 319.673 323.586,319.933 323.098,320.136 322.966 C 320.393 322.799,320.538 318.069,320.610 307.523 L 320.713 292.321 337.994 292.318 C 354.057 292.315,360.776 292.039,361.666 291.343 C 361.864 291.189,362.670 290.964,363.459 290.844 C 366.322 290.407,372.589 287.270,376.517 284.307 C 378.448 282.851,382.239 279.127,383.545 277.404 C 385.579 274.721,386.143 273.877,386.151 273.502 C 386.156 273.270,386.288 273.080,386.444 273.080 C 386.600 273.080,386.928 272.473,387.173 271.730 C 387.418 270.987,387.729 270.380,387.865 270.380 C 388.000 270.380,388.313 269.696,388.560 268.861 C 388.806 268.025,389.116 267.342,389.248 267.342 C 389.380 267.342,389.667 266.468,389.886 265.401 C 390.105 264.333,390.402 263.308,390.547 263.122 C 392.108 261.113,392.110 80.338,390.548 80.338 C 390.410 80.338,390.198 79.585,390.076 78.664 C 389.954 77.744,389.660 76.794,389.422 76.554 C 389.185 76.314,388.790 75.397,388.544 74.515 C 388.299 73.633,387.972 72.911,387.818 72.911 C 387.664 72.911,387.356 72.304,387.133 71.561 C 386.911 70.819,386.619 70.211,386.485 70.211 C 386.352 70.211,386.053 69.755,385.823 69.198 C 385.592 68.641,385.294 68.186,385.161 68.186 C 385.028 68.186,384.748 67.812,384.540 67.355 C 384.109 66.408,383.925 66.190,380.829 62.943 C 378.471 60.472,374.739 57.384,374.108 57.384 C 373.907 57.384,373.661 57.170,373.561 56.909 C 373.461 56.648,372.913 56.333,372.343 56.208 C 371.774 56.082,371.308 55.852,371.308 55.696 C 371.308 55.539,370.743 55.224,370.052 54.996 C 369.360 54.768,368.590 54.377,368.340 54.126 C 368.089 53.876,367.652 53.671,367.369 53.671 C 367.085 53.671,366.374 53.453,365.789 53.186 C 364.365 52.537,362.230 51.987,361.125 51.985 C 360.630 51.984,360.162 51.793,360.084 51.561 C 359.973 51.228,351.740 51.119,320.766 51.044 L 281.588 50.949 281.469 41.283 C 281.379 33.937,281.249 31.584,280.928 31.477 C 280.696 31.399,280.505 30.931,280.502 30.436 C 280.496 28.938,278.704 23.182,277.963 22.278 C 277.735 22.000,277.440 21.419,277.309 20.987 C 276.981 19.913,273.055 14.146,272.509 13.937 C 272.266 13.844,272.068 13.617,272.068 13.432 C 272.068 13.062,268.994 9.803,268.637 9.794 C 268.513 9.791,267.830 9.259,267.118 8.611 C 265.040 6.720,264.799 6.540,263.679 6.044 C 263.095 5.785,262.616 5.465,262.616 5.332 C 262.616 5.199,262.008 4.908,261.266 4.686 C 260.523 4.463,259.916 4.160,259.916 4.011 C 259.916 3.862,259.308 3.558,258.565 3.336 C 257.823 3.113,257.215 2.827,257.215 2.701 C 257.215 2.574,256.342 2.276,255.274 2.038 C 254.207 1.801,253.256 1.486,253.163 1.339 C 252.460 0.236,249.084 0.199,145.992 0.159 C 89.924 0.138,43.139 0.168,42.025 0.227 M247.017 24.149 C 247.149 24.343,247.903 24.709,248.692 24.963 C 249.481 25.217,250.127 25.552,250.127 25.708 C 250.127 25.864,250.276 25.992,250.458 25.992 C 251.181 25.992,253.783 28.279,254.872 29.873 C 255.507 30.802,256.120 31.637,256.235 31.730 C 256.351 31.823,256.655 32.506,256.913 33.249 C 257.170 33.992,257.533 34.708,257.720 34.840 C 258.234 35.205,258.187 206.190,257.672 206.510 C 257.459 206.643,257.112 207.397,256.900 208.186 C 256.688 208.975,256.386 209.620,256.230 209.620 C 256.074 209.620,255.758 210.076,255.527 210.633 C 255.297 211.190,254.971 211.646,254.803 211.646 C 254.635 211.646,254.354 212.025,254.177 212.489 C 254.001 212.954,253.724 213.333,253.563 213.333 C 253.402 213.333,252.828 213.713,252.289 214.177 C 251.749 214.641,251.118 215.020,250.886 215.021 C 250.654 215.021,250.464 215.177,250.464 215.367 C 250.464 215.557,250.046 215.870,249.536 216.063 C 249.025 216.255,248.152 216.669,247.595 216.983 C 246.658 217.510,241.925 217.565,184.038 217.722 C 138.263 217.845,121.430 217.992,121.253 218.270 C 121.121 218.479,120.541 218.752,119.964 218.877 C 119.387 219.002,118.324 219.646,117.601 220.309 C 116.878 220.971,115.986 221.724,115.619 221.981 C 115.252 222.239,113.861 223.513,112.527 224.811 C 111.193 226.110,110.021 227.173,109.921 227.173 C 109.748 227.173,108.510 228.322,102.735 233.840 C 101.326 235.186,100.059 236.287,99.920 236.287 C 99.780 236.287,98.678 237.274,97.471 238.481 C 96.265 239.688,95.171 240.675,95.042 240.675 C 94.912 240.675,93.867 241.585,92.720 242.697 C 87.567 247.691,85.303 249.789,85.067 249.789 C 84.928 249.789,83.826 250.776,82.619 251.983 C 81.412 253.190,80.319 254.177,80.190 254.177 C 80.061 254.177,78.991 255.127,77.813 256.287 C 75.494 258.570,74.729 259.241,74.445 259.241 C 74.344 259.241,74.262 252.109,74.262 243.392 C 74.262 228.625,74.038 224.135,73.303 224.135 C 73.178 224.135,72.870 223.669,72.618 223.099 C 72.189 222.131,70.736 220.422,70.342 220.422 C 70.245 220.422,69.668 220.042,69.060 219.578 C 68.451 219.114,67.732 218.734,67.462 218.734 C 67.192 218.734,66.781 218.544,66.549 218.312 C 66.233 217.996,62.925 217.848,53.304 217.722 C 44.856 217.610,40.399 217.431,40.241 217.196 C 40.108 217.000,39.468 216.631,38.819 216.376 C 36.264 215.373,32.519 212.201,31.697 210.342 C 31.439 209.759,31.125 209.283,30.999 209.283 C 30.874 209.283,30.667 208.789,30.540 208.186 C 30.413 207.582,30.059 206.557,29.753 205.907 C 28.899 204.088,28.899 37.262,29.753 35.443 C 30.059 34.793,30.413 33.768,30.540 33.165 C 30.667 32.561,30.901 32.068,31.059 32.068 C 31.217 32.068,31.439 31.777,31.552 31.422 C 31.856 30.464,33.478 28.528,35.031 27.270 C 37.581 25.204,37.934 24.986,39.052 24.776 C 39.666 24.660,40.169 24.441,40.169 24.289 C 40.169 23.601,246.546 23.462,247.017 24.149 M68.017 50.593 C 64.953 52.054,62.524 54.654,61.805 57.244 C 60.767 60.984,61.404 174.515,62.463 174.515 C 62.640 174.515,62.785 174.680,62.785 174.883 C 62.785 175.085,63.195 175.821,63.696 176.519 C 64.596 177.770,65.202 178.226,68.186 179.891 L 69.705 180.740 99.409 180.918 L 129.114 181.097 130.473 182.447 C 132.270 184.233,132.658 185.225,132.658 188.033 C 132.658 189.372,132.803 190.380,132.996 190.380 C 133.181 190.380,133.333 190.704,133.333 191.100 C 133.333 192.142,134.066 194.430,134.399 194.430 C 134.556 194.430,134.686 194.620,134.689 194.852 C 134.697 195.548,137.774 198.261,139.516 199.110 C 141.623 200.135,148.632 200.109,149.669 199.072 C 149.993 198.747,150.480 198.481,150.749 198.481 C 151.393 198.481,154.262 195.827,154.262 195.231 C 154.262 194.976,154.414 194.768,154.600 194.768 C 154.787 194.768,155.122 194.084,155.346 193.249 C 155.569 192.414,155.872 191.730,156.019 191.730 C 156.167 191.730,156.288 190.629,156.289 189.283 C 156.292 185.765,156.756 184.293,158.372 182.676 C 160.049 181.000,158.083 181.109,189.962 180.928 C 211.033 180.809,219.842 180.651,220.012 180.390 C 220.145 180.186,220.633 179.927,221.097 179.813 C 222.287 179.521,224.708 177.517,226.353 175.462 C 226.870 174.816,227.511 172.863,227.511 171.933 C 227.511 171.496,227.662 171.139,227.848 171.139 C 228.072 171.139,228.186 152.236,228.186 115.105 C 228.186 84.287,228.070 59.072,227.928 59.072 C 227.786 59.072,227.489 58.308,227.267 57.374 C 227.045 56.440,226.630 55.442,226.343 55.156 C 226.057 54.870,225.823 54.516,225.823 54.371 C 225.823 53.971,224.215 52.321,223.825 52.321 C 223.637 52.321,223.328 52.029,223.137 51.673 C 222.946 51.317,222.295 50.918,221.691 50.787 C 221.086 50.655,220.482 50.377,220.350 50.169 C 220.007 49.628,156.594 49.627,155.917 50.167 C 155.656 50.375,154.835 50.654,154.093 50.788 C 153.350 50.921,151.941 51.397,150.960 51.844 C 149.980 52.292,149.031 52.658,148.851 52.658 C 148.671 52.658,148.523 52.810,148.523 52.996 C 148.523 53.181,148.318 53.333,148.068 53.333 C 147.817 53.333,146.956 53.774,146.153 54.313 C 144.737 55.264,143.989 55.327,143.291 54.552 C 143.105 54.346,142.498 53.949,141.941 53.671 C 141.384 53.392,140.734 52.981,140.495 52.756 C 140.257 52.531,139.536 52.248,138.892 52.128 C 138.248 52.007,137.722 51.784,137.722 51.632 C 137.722 51.481,136.848 51.169,135.781 50.939 C 134.713 50.709,133.627 50.357,133.366 50.155 C 133.035 49.899,123.423 49.765,101.467 49.708 L 70.042 49.628 68.017 50.593 M129.789 73.242 C 131.618 74.375,132.527 75.411,133.156 77.079 C 134.087 79.546,133.767 158.536,132.827 158.340 C 132.456 158.263,121.329 158.141,108.101 158.070 L 84.051 157.941 84.051 115.314 C 84.051 91.869,84.157 72.580,84.287 72.450 C 84.417 72.320,94.405 72.256,106.481 72.309 L 128.439 72.405 129.789 73.242 M205.063 115.105 L 205.063 157.806 181.097 157.978 C 167.916 158.073,156.863 158.280,156.536 158.438 C 155.970 158.711,155.946 156.772,156.030 117.590 L 156.118 76.456 157.046 75.243 C 157.921 74.099,160.023 72.791,161.519 72.461 C 161.890 72.379,171.840 72.333,183.629 72.359 L 205.063 72.405 205.063 115.105 M357.600 74.554 C 363.566 76.836,367.667 81.639,368.590 87.426 C 369.059 90.367,369.069 252.720,368.601 255.961 C 367.896 260.838,363.829 266.169,359.494 267.900 C 358.844 268.159,358.008 268.558,357.637 268.785 C 357.127 269.097,350.777 269.240,331.646 269.367 L 306.329 269.536 304.473 270.412 C 302.227 271.473,300.004 273.632,298.789 275.934 L 297.890 277.637 297.780 288.186 C 297.711 294.880,297.548 298.734,297.335 298.734 C 297.150 298.734,296.364 298.300,295.588 297.769 C 294.812 297.238,293.722 296.550,293.165 296.240 C 292.608 295.930,291.749 295.414,291.256 295.095 C 290.764 294.776,289.700 294.122,288.893 293.642 C 285.670 291.723,283.707 290.452,283.601 290.211 C 283.539 290.072,283.360 289.958,283.203 289.958 C 282.928 289.958,280.972 288.780,274.007 284.423 C 272.197 283.290,270.450 282.209,270.126 282.021 C 267.425 280.456,266.135 279.663,265.992 279.481 C 265.899 279.363,264.835 278.703,263.629 278.015 C 262.422 277.326,259.273 275.414,256.631 273.765 C 253.989 272.116,251.482 270.661,251.061 270.532 C 250.640 270.403,250.082 270.126,249.822 269.916 C 249.476 269.639,233.243 269.490,189.737 269.367 C 147.797 269.248,129.926 269.090,129.451 268.832 C 129.080 268.630,127.892 268.023,126.811 267.482 C 124.845 266.498,121.364 263.385,120.805 262.110 C 120.641 261.739,120.361 261.207,120.181 260.928 C 119.019 259.127,118.371 256.836,118.220 253.988 L 118.058 250.929 119.704 249.404 C 120.609 248.566,122.421 246.904,123.730 245.712 C 125.039 244.520,126.815 242.899,127.677 242.110 L 129.243 240.675 186.562 240.666 C 219.994 240.661,245.250 240.525,247.165 240.338 C 261.240 238.969,274.494 228.167,278.929 214.450 C 280.980 208.108,280.846 213.262,280.845 140.743 C 280.844 88.596,280.933 74.308,281.260 73.980 C 281.587 73.654,289.663 73.589,318.644 73.679 L 355.612 73.793 357.600 74.554 " stroke="none" fill="#0c2444" fill-rule="evenodd"></path><path id="path2" d="M84.271 72.489 C 84.129 72.719,99.529 72.716,119.662 72.482 C 123.932 72.433,117.752 72.357,105.927 72.314 C 94.103 72.271,84.358 72.350,84.271 72.489 M183.543 72.488 L 204.892 72.579 204.980 115.024 L 205.067 157.468 205.065 114.937 L 205.063 72.405 183.629 72.401 L 162.194 72.398 183.543 72.488 M299.299 73.840 C 309.171 73.889,325.424 73.889,335.417 73.840 C 345.410 73.790,337.333 73.749,317.468 73.749 C 297.603 73.749,289.427 73.790,299.299 73.840 M281.009 139.578 C 281.009 175.595,281.049 190.279,281.097 172.209 C 281.145 154.140,281.145 124.671,281.097 106.724 C 281.049 88.777,281.009 103.561,281.009 139.578 M133.416 118.031 C 133.351 149.833,133.245 158.292,132.911 158.426 C 132.581 158.560,132.583 158.602,132.922 158.623 C 133.675 158.670,133.677 158.546,133.588 117.806 L 133.499 77.806 133.416 118.031 M368.774 171.646 C 368.774 217.316,368.813 235.950,368.861 213.053 C 368.909 190.156,368.909 152.789,368.861 130.015 C 368.813 107.241,368.774 125.975,368.774 171.646 M269.686 229.451 L 268.523 230.717 269.789 229.554 C 270.967 228.471,271.210 228.186,270.952 228.186 C 270.896 228.186,270.326 228.755,269.686 229.451 M120.654 248.523 L 119.662 249.620 120.759 248.629 C 121.782 247.705,122.012 247.426,121.751 247.426 C 121.693 247.426,121.199 247.920,120.654 248.523 " stroke="none" fill="#444c54" fill-rule="evenodd"></path><path id="path3" d="M362.869 77.743 C 362.869 77.801,363.363 78.295,363.966 78.840 L 365.063 79.831 364.072 78.734 C 363.148 77.712,362.869 77.482,362.869 77.743 M95.636 157.890 C 101.730 157.942,111.603 157.942,117.577 157.890 C 123.551 157.838,118.565 157.796,106.498 157.796 C 94.430 157.796,89.543 157.839,95.636 157.890 M171.755 157.890 C 177.941 157.942,187.966 157.942,194.033 157.890 C 200.100 157.839,195.038 157.796,182.785 157.796 C 170.532 157.796,165.568 157.839,171.755 157.890 M158.059 240.928 C 173.979 240.977,200.030 240.977,215.949 240.928 C 231.869 240.880,218.844 240.840,187.004 240.840 C 155.165 240.840,142.139 240.880,158.059 240.928 " stroke="none" fill="#505056" fill-rule="evenodd"></path><path id="path4" d="M84.276 72.799 C 83.963 73.111,83.991 157.223,84.304 157.416 C 84.443 157.502,84.518 138.525,84.470 115.245 L 84.383 72.916 106.073 72.827 L 127.764 72.738 106.132 72.656 C 94.235 72.611,84.399 72.675,84.276 72.799 M172.405 72.827 C 178.392 72.878,188.190 72.878,194.177 72.827 C 200.165 72.775,195.266 72.733,183.291 72.733 C 171.316 72.733,166.418 72.775,172.405 72.827 M130.231 74.008 C 130.835 74.426,131.627 75.224,131.991 75.781 C 132.356 76.338,132.655 76.603,132.656 76.371 C 132.659 75.829,130.088 73.249,129.545 73.249 C 129.319 73.249,129.627 73.591,130.231 74.008 M158.386 74.177 C 157.578 74.966,157.565 75.005,158.296 74.435 C 159.737 73.313,159.805 73.249,159.567 73.249 C 159.439 73.249,158.908 73.667,158.386 74.177 M281.337 74.346 C 281.249 74.578,281.216 104.236,281.264 140.253 L 281.352 205.738 281.435 140.002 L 281.519 74.265 317.722 74.177 L 353.924 74.090 317.711 74.007 C 288.990 73.941,281.465 74.011,281.337 74.346 M357.131 74.880 C 357.409 75.052,358.017 75.294,358.481 75.418 C 359.068 75.575,359.170 75.549,358.819 75.331 C 358.540 75.159,357.932 74.917,357.468 74.793 C 356.882 74.636,356.779 74.662,357.131 74.880 M156.342 76.808 C 156.126 77.281,155.955 77.852,155.963 78.075 C 155.970 78.298,156.200 77.964,156.474 77.333 C 157.051 76.004,156.929 75.519,156.342 76.808 M132.996 117.952 L 132.996 157.930 132.068 158.070 C 131.204 158.201,131.215 158.215,132.236 158.262 L 133.333 158.312 133.333 118.143 C 133.333 96.051,133.257 77.975,133.165 77.975 C 133.072 77.975,132.996 95.965,132.996 117.952 M366.817 83.203 C 367.126 83.850,367.438 84.320,367.512 84.247 C 367.666 84.092,366.641 82.025,366.410 82.025 C 366.325 82.025,366.508 82.555,366.817 83.203 M368.006 86.245 C 368.010 86.616,368.128 87.376,368.270 87.932 C 368.501 88.842,368.528 88.859,368.534 88.101 C 368.537 87.637,368.419 86.878,368.270 86.414 C 368.058 85.752,368.001 85.716,368.006 86.245 M128.861 157.875 C 129.278 157.956,129.962 157.956,130.380 157.875 C 130.797 157.795,130.456 157.729,129.620 157.729 C 128.785 157.729,128.443 157.795,128.861 157.875 M156.962 157.992 C 156.201 158.164,156.622 158.193,158.143 158.075 C 159.443 157.974,160.570 157.834,160.647 157.764 C 160.888 157.546,158.204 157.712,156.962 157.992 M279.870 212.040 C 279.849 212.350,279.744 212.881,279.637 213.221 C 279.453 213.807,279.463 213.808,279.828 213.238 C 280.041 212.908,280.146 212.376,280.062 212.057 C 279.925 211.534,279.906 211.533,279.870 212.040 M277.028 219.582 C 276.719 220.230,276.536 220.759,276.621 220.759 C 276.852 220.759,277.877 218.693,277.723 218.538 C 277.649 218.465,277.337 218.935,277.028 219.582 M273.640 225.119 C 272.984 226.031,271.489 227.832,270.317 229.121 L 268.186 231.465 270.638 228.951 C 272.819 226.714,275.395 223.460,274.985 223.460 C 274.900 223.460,274.295 224.206,273.640 225.119 M260.844 236.142 C 259.582 236.827,259.659 237.112,260.928 236.456 C 261.485 236.168,261.941 235.860,261.941 235.772 C 261.941 235.555,261.905 235.567,260.844 236.142 M257.553 237.806 C 257.089 238.071,256.861 238.288,257.046 238.288 C 257.232 238.288,257.764 238.071,258.228 237.806 C 258.692 237.541,258.920 237.324,258.734 237.324 C 258.549 237.324,258.017 237.541,257.553 237.806 M253.840 239.156 C 253.190 239.406,252.886 239.616,253.165 239.622 C 253.443 239.627,254.127 239.423,254.684 239.168 C 255.987 238.571,255.381 238.563,253.840 239.156 M246.076 240.675 C 244.684 240.892,244.656 240.914,245.738 240.943 C 246.388 240.960,247.527 240.848,248.270 240.694 C 250.013 240.334,248.364 240.319,246.076 240.675 M124.539 245.316 L 123.376 246.582 124.641 245.419 C 125.820 244.336,126.062 244.051,125.805 244.051 C 125.748 244.051,125.179 244.620,124.539 245.316 M120.830 248.692 L 119.325 250.295 121.006 248.776 C 121.931 247.941,122.754 247.219,122.835 247.173 C 122.916 247.127,122.836 247.089,122.658 247.089 C 122.480 247.089,121.657 247.810,120.830 248.692 M118.279 250.935 C 118.180 251.194,118.159 251.991,118.233 252.707 C 118.363 253.965,118.369 253.956,118.424 252.433 C 118.457 251.537,118.663 250.785,118.903 250.688 C 119.233 250.554,119.231 250.512,118.892 250.491 C 118.654 250.476,118.379 250.676,118.279 250.935 M118.566 255.359 C 118.570 256.101,118.639 256.365,118.720 255.945 C 118.800 255.526,118.797 254.918,118.713 254.595 C 118.628 254.272,118.562 254.616,118.566 255.359 M368.135 255.899 C 368.011 256.672,367.976 257.371,368.057 257.452 C 368.137 257.532,368.309 256.970,368.439 256.203 C 368.569 255.435,368.604 254.736,368.517 254.649 C 368.431 254.563,368.259 255.125,368.135 255.899 M364.979 262.937 C 364.376 263.664,363.882 264.359,363.882 264.482 C 363.882 264.605,364.414 264.069,365.063 263.291 C 366.132 262.012,366.406 261.592,366.160 261.609 C 366.114 261.613,365.582 262.210,364.979 262.937 M122.194 263.734 C 122.194 263.792,122.688 264.286,123.291 264.831 L 124.388 265.823 123.397 264.726 C 122.473 263.703,122.194 263.474,122.194 263.734 M161.266 269.283 C 177.278 269.331,203.481 269.331,219.494 269.283 C 235.506 269.234,222.405 269.195,190.380 269.195 C 158.354 269.195,145.253 269.234,161.266 269.283 M306.425 269.306 C 305.897 269.516,336.022 269.492,349.367 269.272 C 352.430 269.222,344.152 269.157,330.970 269.129 C 317.789 269.100,306.744 269.180,306.425 269.306 M255.696 272.918 C 256.068 273.220,256.675 273.616,257.046 273.799 L 257.722 274.130 257.046 273.580 C 256.675 273.278,256.068 272.882,255.696 272.699 L 255.021 272.368 255.696 272.918 M299.862 273.337 C 299.488 273.846,299.002 274.641,298.782 275.105 C 298.447 275.813,298.452 275.847,298.812 275.313 C 299.048 274.964,299.601 274.236,300.042 273.696 C 300.483 273.156,300.776 272.646,300.693 272.564 C 300.610 272.481,300.236 272.829,299.862 273.337 M297.600 277.877 C 297.486 278.302,297.424 283.131,297.461 288.608 L 297.530 298.565 297.710 287.932 C 297.809 282.084,297.872 277.256,297.849 277.202 C 297.826 277.148,297.714 277.452,297.600 277.877 M273.249 283.719 C 273.620 284.022,274.228 284.418,274.599 284.600 L 275.274 284.932 274.599 284.382 C 274.228 284.080,273.620 283.683,273.249 283.501 L 272.574 283.170 273.249 283.719 M277.637 286.420 C 278.008 286.722,278.616 287.118,278.987 287.301 L 279.662 287.632 278.987 287.082 C 278.616 286.780,278.008 286.384,277.637 286.201 L 276.962 285.870 277.637 286.420 M282.025 289.120 C 282.397 289.422,283.004 289.819,283.376 290.001 L 284.051 290.333 283.376 289.783 C 283.004 289.481,282.397 289.084,282.025 288.902 L 281.350 288.570 282.025 289.120 M290.802 294.521 C 291.173 294.823,291.781 295.220,292.152 295.402 L 292.827 295.733 292.152 295.184 C 291.781 294.881,291.173 294.485,290.802 294.303 L 290.127 293.971 290.802 294.521 M295.190 297.221 C 295.561 297.524,296.169 297.920,296.540 298.102 L 297.215 298.434 296.540 297.884 C 296.169 297.582,295.561 297.185,295.190 297.003 L 294.515 296.672 295.190 297.221 " stroke="none" fill="#84746c" fill-rule="evenodd"></path></g></svg>